#dashboard_gauge_panel_clock.obj

v 0.016294 -0.014045 0.039236
v -0.016831 -0.014045 0.039237
v -0.000269 -0.014043 0.04238
v -0.030665 -0.014051 0.03031
v 0.030158 -0.014051 0.030286
v -0.039889 -0.014061 0.016638
v 0.039347 -0.014061 0.016731
v 0.042595 -0.014072 0.000454
v -0.043132 -0.014072 0.000453
v 0.039309 -0.014083 -0.016227
v -0.039845 -0.014083 -0.016226
v -0.030503 -0.014093 -0.030443
v 0.029967 -0.014093 -0.030444
v -0.016645 -0.0141 -0.039822
v 0.016108 -0.0141 -0.039823
v -0.000268 -0.014102 -0.04309

vn 0 -0.9999998 0.0006714275
vn 0 -0.9999998 0.0006714275
vn 0 -0.9999998 0.0006714275
vn 0 -0.9999998 0.0006714275
vn 0 -0.9999998 0.0006714275
vn 0 -0.9999998 0.0006714275
vn 0 -0.9999998 0.0006714275
vn 0 -0.9999998 0.0006714275
vn 0 -0.9999998 0.0006714275
vn 0 -0.9999998 0.0006714275
vn 0 -0.9999998 0.0006714275
vn 0 -0.9999998 0.0006714275
vn 0 -0.9999998 0.0006714275
vn 0 -0.9999998 0.0006714275
vn 0 -0.9999998 0.0006714275
vn 0 -0.9999998 0.0006714275

vt 0.329005 0.06492102
vt 0.174625 0.062751
vt 0.25108 0.04876
vt 0.10972 0.105763
vt 0.395593 0.10851
vt 0.066377 0.170523
vt 0.439932 0.172567
vt 0.455575 0.248277
vt 0.050631 0.249218
vt 0.440386 0.325148
vt 0.065744 0.328094
vt 0.109289 0.39401
vt 0.395959 0.391993
vt 0.17484 0.437805
vt 0.329559 0.437169
vt 0.252178 0.453088

g dashboard_gauge_panel_clock.obj
usemtl dashboard_gauge_panel_clock
usemap dashboard_gauge_panel_clock
f 1/1/1 3/3/3 2/2/2
f 1/1/1 2/2/2 4/4/4
f 5/5/5 1/1/1 4/4/4
f 5/5/5 4/4/4 6/6/6
f 7/7/7 5/5/5 6/6/6
f 8/8/8 7/7/7 6/6/6
f 9/9/9 8/8/8 6/6/6
f 9/9/9 10/10/10 8/8/8
f 9/9/9 11/11/11 10/10/10
f 11/11/11 12/12/12 10/10/10
f 12/12/12 13/13/13 10/10/10
f 12/12/12 14/14/14 13/13/13
f 14/14/14 15/15/15 13/13/13
f 14/14/14 16/16/16 15/15/15
